<svg width="50" height="50" viewBox="0 0 50 50" fill="none" xmlns="http://www.w3.org/2000/svg">
<path d="M47.9167 6.24995C45.9216 7.6572 43.7127 8.73351 41.375 9.43745C40.1203 7.99477 38.4528 6.97223 36.598 6.50813C34.7432 6.04404 32.7906 6.16078 31.0043 6.84256C29.2181 7.52435 27.6843 8.73829 26.6104 10.3202C25.5365 11.9021 24.9744 13.7757 25 15.6875V17.7708C21.3388 17.8657 17.711 17.0537 14.4396 15.4071C11.1682 13.7605 8.35483 11.3304 6.25 8.33329C6.25 8.33329 -2.08333 27.0833 16.6667 35.4166C12.3761 38.3291 7.26491 39.7894 2.08333 39.5833C20.8333 50 43.75 39.5833 43.75 15.625C43.7481 15.0446 43.6923 14.4658 43.5833 13.8958C45.7096 11.7989 47.2101 9.15144 47.9167 6.24995V6.24995Z" stroke="white" stroke-width="2" stroke-linecap="round" stroke-linejoin="round"/>
</svg>
