<svg width="50" height="50" viewBox="0 0 50 50" fill="none" xmlns="http://www.w3.org/2000/svg">
<path d="M35.4167 4.1665H14.5833C8.83037 4.1665 4.16667 8.8302 4.16667 14.5832V35.4165C4.16667 41.1695 8.83037 45.8332 14.5833 45.8332H35.4167C41.1696 45.8332 45.8333 41.1695 45.8333 35.4165V14.5832C45.8333 8.8302 41.1696 4.1665 35.4167 4.1665Z" stroke="white" stroke-width="2" stroke-linecap="round" stroke-linejoin="round"/>
<path d="M33.3333 23.6876C33.5904 25.4215 33.2943 27.1923 32.487 28.7481C31.6797 30.3039 30.4024 31.5656 28.8367 32.3536C27.2711 33.1417 25.4968 33.416 23.7662 33.1375C22.0357 32.859 20.437 32.042 19.1976 30.8026C17.9582 29.5631 17.1411 27.9645 16.8626 26.2339C16.5842 24.5034 16.8585 22.7291 17.6465 21.1634C18.4346 19.5978 19.6962 18.3204 21.2521 17.5131C22.8079 16.7059 24.5787 16.4097 26.3125 16.6668C28.0811 16.9291 29.7184 17.7532 30.9827 19.0174C32.247 20.2817 33.0711 21.9191 33.3333 23.6876Z" stroke="white" stroke-width="2" stroke-linecap="round" stroke-linejoin="round"/>
<path d="M36.4583 13.5415H36.4792" stroke="white" stroke-width="2" stroke-linecap="round" stroke-linejoin="round"/>
</svg>
