<svg width="31" height="30" viewBox="0 0 31 30" fill="none" xmlns="http://www.w3.org/2000/svg">
<path d="M27.1913 12.5C27.1913 21.25 15.95 28.75 15.95 28.75C15.95 28.75 4.70862 21.25 4.70862 12.5C4.70862 9.51631 5.89297 6.65483 8.00113 4.54505C10.1093 2.43526 12.9686 1.25 15.95 1.25C18.9314 1.25 21.7906 2.43526 23.8988 4.54505C26.007 6.65483 27.1913 9.51631 27.1913 12.5Z" stroke="#17C2EC" stroke-width="2" stroke-linecap="round" stroke-linejoin="round"/>
<path d="M15.95 16.25C18.0195 16.25 19.6971 14.5711 19.6971 12.5C19.6971 10.4289 18.0195 8.75 15.95 8.75C13.8805 8.75 12.2029 10.4289 12.2029 12.5C12.2029 14.5711 13.8805 16.25 15.95 16.25Z" stroke="#17C2EC" stroke-width="2" stroke-linecap="round" stroke-linejoin="round"/>
</svg>
