<svg width="50" height="49" viewBox="0 0 50 49" fill="none" xmlns="http://www.w3.org/2000/svg">
<g clip-path="url(#clip0_5_56)">
<g clip-path="url(#clip1_5_56)">
<path d="M35.291 42.3555V38.2807C35.291 36.1192 34.4324 34.0463 32.904 32.518C31.3757 30.9896 29.3028 30.131 27.1413 30.131H10.8419C8.68052 30.131 6.60761 30.9896 5.07925 32.518C3.55089 34.0463 2.69226 36.1192 2.69226 38.2807V42.3555" stroke="white" stroke-width="2.99376" stroke-linecap="round" stroke-linejoin="round"/>
<path d="M18.9917 21.9813C23.4926 21.9813 27.1414 18.3325 27.1414 13.8316C27.1414 9.33062 23.4926 5.68188 18.9917 5.68188C14.4907 5.68188 10.842 9.33062 10.842 13.8316C10.842 18.3325 14.4907 21.9813 18.9917 21.9813Z" stroke="white" stroke-width="2.99376" stroke-linecap="round" stroke-linejoin="round"/>
<path d="M47.5155 42.3554V38.2806C47.5142 36.4749 46.9132 34.7207 45.8069 33.2936C44.7006 31.8665 43.1516 30.8472 41.4033 30.3958" stroke="white" stroke-width="2.99376" stroke-linecap="round" stroke-linejoin="round"/>
<path d="M33.2536 5.94678C35.0066 6.39562 36.5604 7.41515 37.67 8.84462C38.7796 10.2741 39.3818 12.0322 39.3818 13.8418C39.3818 15.6514 38.7796 17.4095 37.67 18.839C36.5604 20.2684 35.0066 21.288 33.2536 21.7368" stroke="white" stroke-width="2.99376" stroke-linecap="round" stroke-linejoin="round"/>
</g>
</g>
<defs>
<clipPath id="clip0_5_56">
<rect width="48.8981" height="48.8981" fill="white" transform="translate(0.155884 0.0686035)"/>
</clipPath>
<clipPath id="clip1_5_56">
<rect width="48.8981" height="48.8981" fill="white" transform="translate(0.654846 -0.430298)"/>
</clipPath>
</defs>
</svg>
