<svg width="50" height="50" viewBox="0 0 50 50" fill="none" xmlns="http://www.w3.org/2000/svg">
<path d="M46.9583 13.3752C46.7109 12.3864 46.2068 11.4805 45.4972 10.7489C44.7876 10.0173 43.8974 9.48596 42.9167 9.2085C39.3333 8.3335 25 8.3335 25 8.3335C25 8.3335 10.6667 8.3335 7.08334 9.29183C6.1026 9.5693 5.21246 10.1007 4.50281 10.8323C3.79316 11.5639 3.28915 12.4698 3.04167 13.4585C2.38587 17.0951 2.06508 20.7841 2.08334 24.4793C2.05996 28.2023 2.38077 31.9195 3.04167 35.5835C3.3145 36.5415 3.82981 37.413 4.5378 38.1137C5.2458 38.8144 6.12255 39.3206 7.08334 39.5835C10.6667 40.5418 25 40.5418 25 40.5418C25 40.5418 39.3333 40.5418 42.9167 39.5835C43.8974 39.306 44.7876 38.7747 45.4972 38.0431C46.2068 37.3115 46.7109 36.4056 46.9583 35.4168C47.6091 31.8076 47.9298 28.1467 47.9167 24.4793C47.94 20.7563 47.6192 17.0391 46.9583 13.3752V13.3752Z" stroke="white" stroke-width="2" stroke-linecap="round" stroke-linejoin="round"/>
<path d="M20.3125 31.2915L32.2917 24.479L20.3125 17.6665V31.2915Z" stroke="white" stroke-width="2" stroke-linecap="round" stroke-linejoin="round"/>
</svg>
